<?xml version="1.0" encoding="utf-8"?>
<!-- Generator: Adobe Illustrator 21.1.0, SVG Export Plug-In . SVG Version: 6.00 Build 0)  -->
<svg version="1.1" id="Layer_1" xmlns="http://www.w3.org/2000/svg" xmlns:xlink="http://www.w3.org/1999/xlink" x="0px" y="0px"
	 viewBox="0 0 1200 1200" style="enable-background:new 0 0 1200 1200;" xml:space="preserve">
<style type="text/css">
	.st0{fill:none;}
	.st1{fill:#333333;}
</style>
<title>Artboard 1</title>
<path class="st0" d="M1,1201V1h1200v1200H1z M181.8,296.7c0.8,3.1,0.9,5.8,2.1,7.8c7.7,13,15.5,25.9,23.4,38.8
	c11.8,19.2,23.8,38.3,35.6,57.5s23.2,38.3,35,57.4c16.8,27.5,33.8,54.9,50.6,82.4c17.2,28.2,34.3,56.5,51.6,84.7
	c22.4,36.5,44.9,73,67.2,109.5c17.9,29.3,35.5,58.8,53.5,88.1c11.9,19.5,24.2,38.8,36.2,58.3c19.3,31.4,38.6,62.9,57.8,94.4
	c3.9,6.3,9.2,6.3,13.1-0.1c8.6-14,17-28.1,25.6-42.2c18.2-29.7,36.6-59.4,54.8-89.2c15.6-25.5,30.8-51.2,46.4-76.7
	c12.1-19.9,24.6-39.6,36.8-59.5c9.9-16.1,19.4-32.5,29.3-48.6c7.3-12,15.2-23.8,22.5-35.8c13.1-21.4,26.1-42.9,39.2-64.2
	c16.7-27.3,33.6-54.6,50.3-82c15.6-25.5,30.8-51.1,46.4-76.6c18.5-30.3,37.3-60.4,55.8-90.7c2.5-4,4-8.6,6-12.9
	c-10.8-3.5-20.2-6.8-29.8-9.7c-11.3-3.4-22.8-6.3-34-9.7c-13.9-4.2-27.8-8.8-41.7-13.1c-9.3-2.9-18.8-5.4-28.2-8.3
	c-8.6-2.6-17.2-5.6-25.8-8.2c-11.2-3.4-22.5-6.6-33.7-10c-18.4-5.6-36.6-11.5-55-16.8c-10-2.9-10-2.5-14.8,6.2
	c-18.2,33.3-36.5,66.7-54.8,100c-9.5,17.3-19.2,34.5-28.8,51.8c-10.3,18.7-20.5,37.5-30.7,56.3c-10.4,19.1-20.8,38.2-31.1,57.3
	c-3.6,6.6-7.3,13.2-11.2,20.2c-1.1-1.4-2.2-2.9-3.2-4.5c-10.2-19-20.3-38.1-30.7-57c-21.1-38.5-42.3-76.8-63.5-115.2
	c-20.6-37.4-41.1-74.8-61.5-112.3c-2.5-4.7-5.2-5.5-10.2-3.9c-16.2,5.3-32.6,10.2-48.9,15.1C328,252.2,272.6,269,217.2,285.8
	C205.5,289.3,193.8,293,181.8,296.7z"/>
<path class="st1" d="M181.8,296.7c12.1-3.7,23.7-7.3,35.4-10.9c55.3-16.8,110.7-33.6,166.1-50.4c16.3-5,32.7-9.8,48.9-15.1
	c5-1.6,7.6-0.8,10.2,3.9c20.4,37.5,40.9,74.9,61.5,112.3c21.1,38.4,42.4,76.8,63.5,115.2c10.4,18.9,20.4,38,30.7,57
	c1,1.6,2,3.1,3.2,4.5c3.9-7,7.6-13.5,11.2-20.2c10.4-19.1,20.8-38.2,31.1-57.3c10.2-18.8,20.5-37.6,30.7-56.3
	c9.5-17.3,19.2-34.5,28.8-51.8c18.3-33.3,36.6-66.7,54.8-100c4.8-8.7,4.8-9.1,14.8-6.2c18.4,5.3,36.7,11.2,55,16.8
	c11.2,3.4,22.5,6.6,33.7,10c8.6,2.6,17.2,5.6,25.8,8.2c9.4,2.9,18.8,5.4,28.2,8.3c13.9,4.3,27.7,8.9,41.7,13.1
	c11.3,3.4,22.8,6.3,34,9.7c9.6,2.9,19,6.2,29.8,9.7c-1.9,4.3-3.5,8.8-6,12.9c-18.5,30.3-37.3,60.4-55.8,90.7
	c-15.6,25.5-30.9,51.1-46.4,76.6c-16.7,27.4-33.6,54.6-50.3,82c-13.1,21.4-26,42.9-39.2,64.2c-7.4,12-15.2,23.7-22.5,35.8
	c-9.9,16.1-19.4,32.5-29.3,48.6c-12.2,19.9-24.7,39.6-36.8,59.5c-15.6,25.5-30.8,51.2-46.4,76.7c-18.2,29.8-36.5,59.4-54.8,89.2
	c-8.6,14-17.1,28.1-25.6,42.2c-3.9,6.4-9.2,6.4-13.1,0.1c-19.3-31.5-38.5-62.9-57.8-94.4c-12-19.5-24.2-38.8-36.2-58.3
	c-17.9-29.3-35.5-58.8-53.5-88.1c-22.3-36.5-44.9-73-67.2-109.5c-17.3-28.2-34.3-56.5-51.6-84.7c-16.8-27.5-33.8-54.9-50.6-82.4
	c-11.7-19.1-23.2-38.3-34.9-57.4s-23.7-38.3-35.5-57.5c-7.9-12.9-15.8-25.8-23.4-38.8C182.6,302.5,182.5,299.8,181.8,296.7z"/>
</svg>
