<?xml version="1.0" encoding="utf-8"?>
<!-- Generator: Adobe Illustrator 21.1.0, SVG Export Plug-In . SVG Version: 6.00 Build 0)  -->
<svg version="1.1" id="Layer_1" xmlns="http://www.w3.org/2000/svg" xmlns:xlink="http://www.w3.org/1999/xlink" x="0px" y="0px"
	 viewBox="0 0 1200 1200" style="enable-background:new 0 0 1200 1200;" xml:space="preserve">
<style type="text/css">
	.st0{fill:none;}
	.st1{fill:#6E3400;}
</style>
<title>Artboard 1</title>
<path class="st0" d="M1,1201V1h1200v1200H1z M430.4,1048c5.7,4.5,11.2,6.4,17.2,6.6c9.3,0.3,18.7,0.3,28,0c4.7-0.2,6.2,1.4,5.8,5.9
	c-0.2,1.9,0.5,3.8,0.8,5.7c2.1-0.6,4.7-0.6,6.4-1.9c6.9-4.9,14.1-9.5,20.1-15.4c26.9-26.4,54.8-52.1,75.9-83.8
	c12.8-19.3,25.7-38.7,36.6-59c10.7-19.9,19.3-40.8,24.4-63.2c2.8-12.5,4.9-24.9,5.2-37.7c0.4-20.8-5.6-39.4-16.7-56.7
	c-1.5-2.8-1.8-6-0.7-9c3.3-8.1,5.6-16.2,5.4-25c0-2.8,1-5.8,2.2-8.5c2.7-6.4,6.8-12.2,5.9-19.7c-0.2-1.7,1.1-3.8,2-5.5
	c3.3-5.9,7-11.6,10.3-17.5c7.6-13.6,14.9-27.3,22.6-40.8c8.9-15.7,18.3-31.1,27.2-46.8c7.7-13.5,14.9-27.2,22.6-40.8
	c9.7-17.1,19.7-34.1,29.4-51.2s19.2-34.4,28.9-51.5s19.6-33.8,29.2-50.7c10.4-18.4,20.5-37,30.9-55.4c9.6-17,19.5-33.8,29.2-50.7
	c9.4-16.5,18.6-33.1,28-49.7c9.9-17.4,20-34.7,29.9-52.1c7.9-14,15.3-28.2,23.4-42c2.6-4.4,2-7.1-1.1-10.4
	c-7.4-8.3-17.2-12.7-27.1-16.9c-4.8-2.1-8.5-0.9-11.3,3.2c-3,4.5-5.8,9.3-8.5,14c-7.7,13.7-15.4,27.4-23,41.1s-15.3,27.4-23,41.1
	s-15.3,27.4-23.1,41.1c-6.3,11.1-12.7,22-19,33.1c-8.4,15-16.7,30-25.1,45c-6.9,12.2-13.9,24.4-20.8,36.7
	c-5.2,9.2-10.2,18.5-15.5,27.7c-6.1,10.8-12.4,21.5-18.5,32.2c-8.4,15-16.7,30.1-25,45.1c-7,12.5-14.2,25-21.2,37.6
	c-5.7,10.2-11.3,20.6-17.1,30.8c-8.9,15.7-17.9,31.2-26.8,46.9c-6,10.5-11.6,21.2-17.6,31.7c-6.1,10.8-12.5,21.4-18.4,32.3
	c-4.6,8.5-9.4,16.6-18.5,21.4c-3.6,1.9-6.1,6-9.2,9c-3,2.8-6.1,5.4-9.1,8.2c-6.3,6-13.1,11.7-18.7,18.3c-2.4,2.8-4.2,4.5-7.9,4.7
	c-7.8,0.4-15.7,0.4-23.2,2.1c-9.6,2.2-19.4,4.9-28.2,9.2c-10,4.9-19.2,11.5-28.5,17.7c-19.3,12.9-34.3,30.5-50.1,47.1
	c-14.6,15.4-27.9,32-42.4,47.6c-8.6,9.3-17.9,17.9-27.8,25.7c-12.6,9.9-25.6,19.6-39.5,27.4c-12.6,7.1-26.5,11.7-40.8,13.4
	c-2.5,0.3-4.9,2.2-7.3,3.4c1.4,2.2,2.4,4.8,4.3,6.4c5.2,4.3,10.8,8.2,16.2,12.3c1.3,1.2,2.4,2.4,3.4,3.8c-1.3,0.6-2.6,1.3-4,1.8
	c-3.4,1.2-6.8,2.4-11.4,4c2.8,2.2,3.9,3.4,5.3,4.2c11,6.1,22,12.1,32.9,18.2c1.4,0.8,2.1,2.6,3.1,3.9c-1.4,0.5-2.8,1.4-4.2,1.5
	c-3.7,0.2-7.4,0.1-12.4,0.1c1.7,2.3,2.3,3.5,3.3,4.3c10.5,8.1,20.5,17.1,31.8,23.9c18.5,11.2,37.5,21.6,56.8,31.4
	c13.8,7,28.4,12.5,42.8,18.5c5.2,2.2,6,6.1,1.6,9.8C435,1044.7,433.1,1046,430.4,1048z"/>
<path class="st1" d="M430.4,1048c2.7-2.1,4.6-3.4,6.3-4.8c4.4-3.7,3.6-7.6-1.6-9.8c-14.3-6-28.9-11.5-42.8-18.5
	c-19.3-9.8-38.3-20.1-56.8-31.4c-11.3-6.9-21.3-15.8-31.8-23.9c-1-0.8-1.6-2-3.3-4.3c5,0,8.7,0.1,12.4-0.1c1.4-0.1,2.8-1,4.2-1.5
	c-1-1.3-1.8-3.2-3.1-3.9c-10.9-6.2-21.9-12.1-32.9-18.2c-1.4-0.8-2.5-2-5.3-4.2c4.7-1.6,8.1-2.8,11.4-4c1.4-0.5,2.7-1.2,4-1.8
	c-1-1.4-2.2-2.7-3.4-3.8c-5.4-4.2-11-8-16.2-12.3c-1.9-1.6-2.9-4.2-4.3-6.4c2.4-1.2,4.8-3.1,7.3-3.4c14.4-1.8,28.2-6.3,40.8-13.4
	c13.9-7.8,26.9-17.5,39.5-27.4c9.9-7.8,19.2-16.4,27.8-25.7c14.5-15.5,27.7-32.2,42.4-47.6c15.8-16.6,30.8-34.2,50.1-47.1
	c9.3-6.2,18.5-12.8,28.5-17.7c8.8-4.3,18.6-7,28.2-9.2c7.5-1.7,15.4-1.7,23.2-2.1c3.7-0.2,5.5-1.9,7.9-4.7
	c5.7-6.6,12.4-12.3,18.7-18.3c3-2.8,6.1-5.4,9.1-8.2c3.1-3,5.5-7,9.2-9c9.1-4.8,13.8-12.9,18.5-21.4c5.9-10.9,12.3-21.5,18.4-32.3
	c5.9-10.5,11.6-21.2,17.6-31.7c8.9-15.7,17.9-31.2,26.8-46.9c5.8-10.2,11.3-20.5,17.1-30.8c7-12.5,14.2-25,21.2-37.6
	c8.4-15,16.6-30.1,25-45.1c6.1-10.8,12.4-21.5,18.5-32.2c5.2-9.2,10.3-18.5,15.5-27.7c6.9-12.2,13.9-24.4,20.8-36.7
	c8.4-15,16.7-30,25.1-45c6.2-11.1,12.7-22.1,19-33.1c7.7-13.7,15.4-27.3,23.1-41.1s15.3-27.4,23-41.1c7.7-13.7,15.3-27.4,23-41.1
	c2.7-4.8,5.4-9.5,8.5-14c2.7-4.1,6.5-5.2,11.3-3.2c10,4.2,19.7,8.6,27.1,16.9c3,3.4,3.7,6.1,1.1,10.4c-8.2,13.8-15.5,28.1-23.4,42
	c-9.8,17.4-20,34.7-29.9,52.1c-9.4,16.5-18.6,33.2-28,49.7c-9.7,17-19.6,33.8-29.2,50.7c-10.4,18.4-20.5,37-30.9,55.4
	c-9.6,17-19.5,33.8-29.2,50.7s-19.2,34.4-28.9,51.5s-19.7,34.1-29.4,51.2c-7.7,13.5-14.9,27.3-22.6,40.8
	c-8.9,15.7-18.2,31.1-27.2,46.8c-7.7,13.5-15,27.2-22.6,40.8c-3.3,5.9-6.9,11.7-10.3,17.5c-1,1.7-2.2,3.8-2,5.5
	c0.9,7.5-3.2,13.3-5.9,19.7c-1.1,2.7-2.2,5.7-2.2,8.5c0.2,8.8-2.1,16.9-5.4,25c-1,3-0.8,6.2,0.7,9c11.2,17.3,17.1,35.9,16.7,56.7
	c-0.3,12.8-2.3,25.2-5.2,37.7c-5.1,22.3-13.8,43.3-24.4,63.2c-10.9,20.4-23.8,39.7-36.6,59c-21.1,31.7-49,57.3-75.9,83.8
	c-6,5.9-13.2,10.5-20.1,15.4c-1.7,1.2-4.2,1.3-6.4,1.9c-0.3-1.9-1-3.8-0.8-5.7c0.5-4.5-1.1-6.1-5.8-5.9c-9.3,0.4-18.7,0.3-28,0
	C441.6,1054.4,436.1,1052.5,430.4,1048z"/>
</svg>
