<svg id="Layer_1" data-name="Layer 1" xmlns="http://www.w3.org/2000/svg" viewBox="0 0 573.83 386.33"><defs><style>.cls-1{fill:none;stroke:#000;stroke-miterlimit:500;stroke-width:7px;}</style></defs><title>MJBLogo3</title><polygon class="cls-1" points="130.66 382.83 255.66 382.83 193.16 257.83 130.66 382.83"/><polygon class="cls-1" points="380.66 7.83 286.91 195.33 349.41 320.33 380.66 257.83 443.16 382.83 568.16 382.83 380.66 7.83"/><polygon class="cls-1" points="349.41 320.33 286.91 195.33 193.16 7.83 5.66 382.83 130.66 382.83 193.16 257.83 255.66 382.83 443.16 382.83 380.66 257.83 349.41 320.33"/><line class="cls-1" x1="193.16" y1="7.83" x2="5.66" y2="382.83"/><line class="cls-1" x1="380.66" y1="7.83" x2="568.16" y2="382.83"/><line class="cls-1" x1="193.16" y1="257.83" x2="130.66" y2="382.83"/><line class="cls-1" x1="255.66" y1="382.83" x2="193.16" y2="257.83"/><line class="cls-1" x1="443.16" y1="382.83" x2="380.66" y2="257.83"/><line class="cls-1" x1="286.91" y1="195.33" x2="349.41" y2="320.33"/><line class="cls-1" x1="193.16" y1="7.83" x2="286.91" y2="195.33"/><line class="cls-1" x1="380.66" y1="257.83" x2="349.41" y2="320.33"/><line class="cls-1" x1="380.66" y1="7.83" x2="286.91" y2="195.33"/><line class="cls-1" x1="130.66" y1="382.83" x2="255.66" y2="382.83"/><line class="cls-1" x1="5.66" y1="382.83" x2="130.66" y2="382.83"/><line class="cls-1" x1="443.16" y1="382.83" x2="568.16" y2="382.83"/><line class="cls-1" x1="255.66" y1="382.83" x2="443.16" y2="382.83"/></svg>