<?xml version="1.0" encoding="utf-8"?>
<!-- Generator: Adobe Illustrator 21.1.0, SVG Export Plug-In . SVG Version: 6.00 Build 0)  -->
<svg version="1.1" id="Layer_1" xmlns="http://www.w3.org/2000/svg" xmlns:xlink="http://www.w3.org/1999/xlink" x="0px" y="0px"
	 viewBox="0 0 1200 1200" style="enable-background:new 0 0 1200 1200;" xml:space="preserve">
<style type="text/css">
	.st0{fill:#FFFFFF;}
</style>
<path class="st0" d="M796.4,781.3c0.7-2.2,1-3.7,1.6-5.2c11.7-31.5,23.5-63,35-94.6c1.4-3.9,3.6-4.8,7.4-4.8
	c27.7,0.1,55.3,0.2,83-0.1c3.9,0,9.1-0.7,11.3-3.2c3.3-3.8-0.1-8.4-2.5-12.3c-29.6-49.2-59.5-98.3-88.8-147.8
	c-5-8.5-11.2-11.8-20.6-11.6c-12.7,0.3-25.3,0.1-38,0.1c-129,0-258,0-387,0.1c-13.3,0-26.6,0.8-39.9,1.7c-7.9,0.5-13.8,4.8-17.2,12
	c-3.1,6.6-6.1,13.3-8.6,20.2c-30,79.9-59.9,159.9-89.8,240c-1.7,4.5-3.8,6-8.6,6c-46.8-0.2-93.7-0.1-140.5-0.1h-6.6
	c1.1-3,1.8-5.2,2.6-7.3c30.3-78.4,60.7-156.8,91-235.2c1.9-4.9,3.5-10.2,3.6-15.4c0.3-12.2-8.1-20.2-20.3-20.2H62
	c-8.9,0-11-3-8.1-11.5c7.7-22.5,15.6-45,23.1-67.6c1.6-4.8,3.9-6.2,8.9-6.2c274.5,0.1,549,0.2,823.4,0.2c8.1,0,16.4,0.4,24.3,2.1
	c12.5,2.8,21.3,11,27.7,22c47.4,82.8,94.8,165.6,142.3,248.4c13.7,23.8,27.3,47.7,41,71.5c6.2,10.8,1.5,19-10.8,19H802.3
	C800.5,781.6,798.8,781.4,796.4,781.3z"/>
<path class="st0" d="M676.9,781.3c12.3-8,19.6-19.5,24.4-32.1c13.3-34.8,25.7-69.9,38.3-105c6.2-17.4,1.6-32.9-11.3-45.2
	c-8.1-7.7-17.8-13.9-27.2-20c-7.2-4.6-8-5-4.9-12.8c6-15.5,12.1-31,17.9-46.6c1.3-3.5,3.2-4.7,6.9-4.7c28.8,0.2,57.6,0.2,86.5,0
	c7.8-0.1,13.5,3,17.7,9.2c9,13.6,17.8,27.3,26.9,40.9c2.6,3.9,1.7,7.5,0.2,11.4c-11.3,30.4-22.6,60.8-33.9,91.3
	c-13.4,36-26.8,72-40,108.2c-1.5,4.2-3.5,5.9-8.2,5.8c-29.7-0.2-59.3-0.1-89-0.1C679.7,781.6,678.3,781.4,676.9,781.3z"/>
<path class="st0" d="M558.7,516.2c1.5,0,2.9,0.2,5,0.4c-0.4,3.3-0.9,6.2-1.2,9.2c-0.9,8.8,2.2,13.7,10.3,17.1
	c36.9,15.3,73.9,30.5,110.6,46.2c8.2,3.6,15.9,8.3,22.9,13.9c12.8,10.2,17.2,24.2,13.3,39.8c-9.6,38.1-23.7,75-42.1,109.8
	c-9.8,18.7-25.6,28.4-46.9,28.5c-6.7,0.1-13.3,0.3-20,0.3c-114.3,0-228.7,0-343,0h-7.2c0.8-2.5,1.3-4.2,1.9-5.9
	c11.2-30.1,22.6-60.2,33.7-90.3c1.5-4.2,3.7-5.3,8-5.3c84.5,0.1,169,0.2,253.5,0c3.3,0.1,6.6-0.3,9.8-1.2c5.1-1.4,7.2-5.7,4.4-10.1
	c-2.1-3.5-5.2-6.3-8.9-8.2c-31.7-14.3-63.6-28.2-95.5-42.2c-20.6-9.1-41.1-18.2-61.6-27.4c-2.7-1.2-5.4-2.6-8-4.1
	c-9.9-5.9-14.7-14.5-12.6-26c2.5-13.4,5.6-26.7,8.3-40c0.7-3.6,2.5-4.8,6.2-4.8C452.7,516.3,505.7,516.3,558.7,516.2z"/>
</svg>
