<?xml version="1.0" encoding="utf-8"?>
<!-- Generator: Adobe Illustrator 21.1.0, SVG Export Plug-In . SVG Version: 6.00 Build 0)  -->
<svg version="1.1" id="tsa_Image" xmlns="http://www.w3.org/2000/svg" xmlns:xlink="http://www.w3.org/1999/xlink" x="0px" y="0px"
	 viewBox="0 0 1200 1200" style="enable-background:new 0 0 1200 1200;" xml:space="preserve">
<style type="text/css">
	.st0{fill:none;}
	.st1{fill:#FDFEFE;}
	.st2{fill:#FDFDFE;}
	.st3{fill:#FFFFFF;}
</style>
<title>Artboard 1</title>
<path class="st0" d="M121,1081V121h960v960H121z M185.5,463c-6.7,19.6-13.5,39.3-20.2,58.9c-2.2,6.3-0.7,8.3,6,8.3
	c27,0,54.2,0.4,81.2-0.2c12-0.2,18.3,11,16.9,19.5c-0.6,2.9-1.4,5.7-2.4,8.4c-24.6,63.4-49.1,127-73.7,190.4
	c-0.5,1.3-0.9,2.6-1.4,4.2c1.2,0.1,1.8,0.2,2.5,0.2c38.8,0,77.6,0,116.4,0.1c2.9,0,3.5-1.5,4.3-3.6c22.3-59.6,44.6-119.2,67-178.8
	c3.7-9.8,7.6-19.6,11.7-29.3c2.3-6,7.9-10.2,14.3-10.7c5.7-0.7,11.4-1.1,17.1-1.3c118.1-0.1,236.2-0.2,354.3-0.2
	c8.3,0,13.4,2.7,17.8,9.9c23.4,39.5,47.4,78.8,71,118.2c1.6,2.7,2.8,6.8,2,9.6c-1.1,3.8-5.7,3-9.1,3c-22.4,0.1-44.8,0.1-67.2,0
	c-2.8,0-4.2,0.8-5.2,3.5c-9.4,25.4-18.8,50.9-28.3,76.3c-0.3,1-0.6,1.9-0.9,3.1h205.1c21.8,0,43.4,0,65.2,0c8.2,0,11.8-6.2,7.9-13.6
	c-0.6-1-1.2-2.1-1.8-3.1c-47.9-83.6-95.8-167.1-143.6-250.8c-6.8-12-15.8-19.8-29.5-22c-2.1-0.5-4.2-1.4-6.3-1.4
	c-176.2-0.1-352.4-0.2-528.6-0.2c-45.6,0-91.2,0-136.7,0.1C189.2,461.9,187.4,462.6,185.5,463z M572.2,541.8c-0.6-0.2-1-0.2-1.6-0.2
	c-43.4,0-86.6,0-130-0.1c-2.3,0-3,1-3.4,2.9c-2.1,9.4-4.7,18.9-6.3,28.5c-2.5,14.8,0.7,20.6,14.4,27c15,7,30.1,13.5,45.2,20.2
	c27.3,12,54.6,23.9,81.8,36.2c3,1.4,5.4,3.7,7.2,6.4c2.5,3.8,0.8,7.5-3.4,8.8c-2.7,0.7-5.4,1-8.2,1c-67.8,0.1-135.4,0.1-203.1,0
	c-3,0-4.4,0.8-5.4,3.7c-7,19.3-14.3,38.4-21.5,57.6l-7.1,19.1h4.9c15,0,30.2,0,45.2,0c81.3-0.1,162.6-0.2,243.9-0.2
	c18.9,0,32.1-8.3,40.2-25c5-10.2,10-20.3,13.9-31c6.6-18.1,13-36.3,18.3-54.9c3.4-11.9-0.3-22.9-10.1-30.9c-4.6-4-9.8-7.4-15.4-9.8
	c-30.6-13.1-61.4-25.8-92.1-38.6c-6-2.5-8.5-6-8.2-12.6C571.4,547.2,571.9,544.6,572.2,541.8z M663.7,752.4c0.7,0.3,0.9,0.5,1.1,0.5
	c24.8,0,49.6-0.1,74.4,0c2.3,0,3.5-0.6,4.3-3c19.9-53.9,39.9-107.8,60-161.7c1.2-3.1,1-5.8-0.9-8.6c-7-10.4-13.8-21-20.6-31.4
	c-3.4-5.3-8.2-8-14.7-7.9c-15,0.2-29.8,0.1-44.8,0.1h-27.7c-5.7,14.6-11.4,29.2-16.7,43.8c-0.5,1.3,0.6,3.5,1.5,4.7
	c1,1.2,2.9,1.8,4.4,2.6c10,5.4,19,11.9,25.5,21.4c5.8,8.2,8.2,17.4,5.3,27.3c-8.9,30.3-19.6,60-32.2,88.9
	C678.6,738.1,673.2,746.8,663.7,752.4z"/>
<path class="st1" d="M862.8,463.2c13.6,2.2,22.6,10.1,29.5,22C940,568.9,987.9,652.5,1036,736c0.6,1,1.2,2.1,1.8,3.1
	c3.9,7.4,0.3,13.6-7.9,13.6c-21.8,0.1-43.4,0-65.2,0H759.5c0.3-1.2,0.6-2.2,0.9-3.1c9.4-25.4,19-50.9,28.3-76.3
	c1-2.7,2.3-3.5,5.2-3.5c22.4,0.2,44.8,0.1,67.2,0c3.4,0,8,0.8,9.1-3c0.8-2.8-0.4-6.9-2-9.6c-23.5-39.4-47.4-78.7-71-118.2
	c-4.2-7.2-9.4-9.9-17.8-9.9c-118.1,0.2-236.2,0.3-354.3,0.2c-5.8,0.1-11.4,0.6-17.1,1.3c-6.4,0.5-12,4.7-14.3,10.7
	c-4.1,9.7-8,19.4-11.7,29.3c-22.4,59.6-44.7,119.3-67,178.9c-0.8,2.1-1.4,3.6-4.3,3.6c-38.8-0.2-77.6-0.1-116.4-0.1
	c-0.6,0-1.3-0.1-2.5-0.2c0.6-1.5,0.9-2.9,1.4-4.2c24.6-63.4,49.1-127,73.7-190.4c1-2.7,1.8-5.5,2.4-8.4c1.4-8.5-4.9-19.8-16.9-19.5
	c-27,0.6-54.2,0.2-81.2,0.2c-6.7,0-8.2-2-6-8.3c6.7-19.6,13.5-39.3,20.2-58.9c4.6,0,9.4,0.1,14,0.1c144.3,0,288.7,0,433,0
	C709.3,463.1,786.1,463.1,862.8,463.2z"/>
<path class="st2" d="M572.2,541.8c-0.3,2.8-0.7,5.4-0.9,8c-0.2,6.6,2.2,10.1,8.2,12.6c30.7,12.8,61.4,25.5,92.1,38.6
	c5.6,2.6,10.7,5.8,15.4,9.8c9.8,8,13.5,19,10.1,30.9c-5.4,18.5-11.7,36.8-18.3,54.9c-3.9,10.6-9,20.8-13.9,31
	c-8.2,16.6-21.4,25-40.2,25c-81.3-0.1-162.6,0-243.9,0.2c-15,0-30.2,0-45.2,0h-4.9l7.1-19.1c7.2-19.2,14.5-38.4,21.5-57.6
	c1-3,2.5-3.7,5.4-3.7c67.8,0.1,135.4,0.1,203.1,0c2.8,0.1,5.6-0.2,8.2-1c4.3-1.3,5.9-5,3.4-8.8c-1.8-2.8-4.2-5-7.2-6.4
	c-27.2-12.2-54.6-24.2-81.8-36.2c-15.1-6.6-30.2-13.3-45.2-20.2c-13.6-6.3-16.8-12.2-14.4-27c1.6-9.6,4.2-19,6.3-28.5
	c0.4-1.8,1.2-2.9,3.4-2.9c43.4,0.1,86.6,0.1,130,0.1C571.1,541.6,571.6,541.6,572.2,541.8z"/>
<path class="st2" d="M663.7,752.4c9.6-5.6,14.9-14.2,19-23.5c12.6-29,23.4-58.6,32.2-88.9c3-9.8,0.6-19-5.3-27.3
	c-6.6-9.4-15.6-16-25.5-21.4c-1.5-0.8-3.4-1.4-4.4-2.6s-2-3.4-1.5-4.7c5.4-14.6,11-29,16.7-43.8h27.7c15,0,29.8,0.2,44.8-0.1
	c6.6-0.1,11.2,2.6,14.7,7.9c6.8,10.5,13.6,21,20.6,31.4c1.9,2.8,2,5.5,0.9,8.6C783.5,642,763.5,696,743.6,750c-0.8,2.2-2,3-4.3,3
	c-24.8-0.1-49.6,0-74.4,0C664.6,752.8,664.4,752.6,663.7,752.4z"/>
<path class="st3" d="M862.8,463.2c-76.8-0.1-153.5-0.1-230.3-0.2c-144.3,0-288.7,0-433,0c-4.6,0-9.4,0-14-0.1
	c1.9-0.4,3.8-1.1,5.7-1.1c45.6-0.1,91.2-0.1,136.7-0.1c176.2,0,352.4,0,528.6,0.1C858.6,461.9,860.8,462.8,862.8,463.2z"/>
</svg>
